<svg width="10" height="10" viewBox="0 0 10 10" fill="none" xmlns="http://www.w3.org/2000/svg">
<path d="M5.24392 6.30908C5.56614 6.53605 5.90395 6.72692 6.25216 6.87135C6.46837 6.94977 6.80765 6.72773 7.05711 6.56447C7.11947 6.52366 7.17621 6.48653 7.22402 6.45867L7.23971 6.44986C7.4747 6.3179 7.73563 6.17137 8.07115 6.24202C8.37259 6.30392 9.40682 7.11896 9.69266 7.40784C9.87975 7.59354 9.9837 7.78957 9.99929 7.99075C10.0305 8.73873 9.02743 9.57957 8.78836 9.72401C8.27904 10.0954 7.59822 10.0903 6.77707 9.71885C5.89875 9.36291 4.84893 8.61493 3.83549 7.70703C3.47271 7.38203 2.77604 6.69777 2.57778 6.46923C1.55394 5.36016 0.691218 4.16854 0.285843 3.2039C0.0935486 2.79638 0 2.41981 0 2.08451C0 1.75436 0.0935486 1.46033 0.275448 1.20756C0.384588 1.0167 1.2629 -0.0253222 2.03727 0.000470705C2.22957 0.0211042 2.42706 0.119116 2.61935 0.304822C2.91039 0.58854 3.74713 1.61508 3.8095 1.91943C3.88065 2.24734 3.73311 2.50618 3.60019 2.73937L3.59122 2.75511C3.56126 2.80687 3.52064 2.86827 3.47624 2.9354C3.31265 3.18269 3.09767 3.50767 3.17493 3.71459C3.36774 4.18918 3.64319 4.65344 3.97528 5.0816C4.34385 5.52226 4.92169 6.0821 5.24392 6.30908Z" fill="#4F4F4F"/>
</svg>
