<svg width="25" height="24" viewBox="0 0 25 24" fill="none" xmlns="http://www.w3.org/2000/svg">
<path d="M1.23517 19.4303C0.207333 14.7333 0.485241 10.5601 0.721326 8.99249C0.889923 7.87297 6.84725 3.2954 10.2394 0.769784C11.6125 -0.252513 13.4796 -0.257135 14.857 0.759246C18.2777 3.28332 24.2934 7.87377 24.3674 8.99249C24.3698 9.02777 24.3722 9.06438 24.3747 9.1023C24.4842 10.7454 24.7569 14.8392 23.8531 19.4303C23.3394 22.0397 21.8166 23.2177 18.7126 23.6054C18.4913 23.6331 18.2704 23.6592 18.0502 23.684C17.7559 23.717 17.5 23.4851 17.5 23.1883V16.1141C17.5 14.4536 16.1568 13.1075 14.5 13.1075L10.5 13.1075C8.84314 13.1075 7.49999 14.4536 7.49999 16.1141L7.49999 23.1799C7.49999 23.4772 7.24306 23.7094 6.94831 23.6752C6.75764 23.6531 6.56673 23.6298 6.37555 23.6054C3.27266 23.2096 1.8021 22.0211 1.23517 19.4303Z" fill="#5D5FEF"/>
<path d="M9.49999 23.4341C9.49999 23.6986 9.70506 23.9178 9.96857 23.9319C11.6525 24.0221 13.3319 24.0227 15.0307 23.9337C15.2945 23.9199 15.5 23.7005 15.5 23.4358L15.5 16.1141C15.5 15.5606 15.0523 15.1119 14.5 15.1119L10.5 15.1119C9.94771 15.1119 9.49999 15.5606 9.49999 16.1141L9.49999 23.4341Z" fill="#5D5FEF"/>
</svg>
