<svg width="25" height="24" viewBox="0 0 25 24" fill="none" xmlns="http://www.w3.org/2000/svg">
<path d="M15.5 22.9049C13.4817 23.0325 11.4957 23.0317 9.5 22.9024V22.8985V22.8841V22.8697V22.8551V22.8404V22.8257V22.8109V22.7959V22.7809V22.7659V22.7507V22.7355V22.7201V22.7047V22.6892V22.6737V22.658V22.6423V22.6265V22.6106V22.5947V22.5786V22.5625V22.5463V22.5301V22.5137V22.4973V22.4809V22.4643V22.4477V22.431V22.4142V22.3974V22.3805V22.3635V22.3464V22.3293V22.3121V22.2949V22.2776V22.2602V22.2428V22.2252V22.2077V22.19V22.1723V22.1546V22.1367V22.1189V22.1009V22.0829V22.0648V22.0467V22.0285V22.0103V21.992V21.9736V21.9552V21.9367V21.9182V21.8996V21.881V21.8623V21.8435V21.8247V21.8059V21.787V21.768V21.749V21.73V21.7109V21.6917V21.6725V21.6533V21.634V21.6147V21.5953V21.5759V21.5564V21.5369V21.5173V21.4977V21.4781V21.4584V21.4386V21.4189V21.399V21.3792V21.3593V21.3394V21.3194V21.2994V21.2794V21.2593V21.2392V21.219V21.1988V21.1786V21.1584V21.1381V21.1177V21.0974V21.077V21.0566V21.0362V21.0157V20.9952V20.9747V20.9541V20.9335V20.9129V20.8923V20.8716V20.8509V20.8302V20.8094V20.7887V20.7679V20.7471V20.7262V20.7054V20.6845V20.6636V20.6427V20.6218V20.6008V20.5798V20.5589V20.5378V20.5168V20.4958V20.4747V20.4537V20.4326V20.4115V20.3904V20.3693V20.3481V20.327V20.3058V20.2847V20.2635V20.2423V20.2211V20.1999V20.1787V20.1575V20.1362V20.115V20.0938V20.0725V20.0513V20.0301V20.0088V19.9876V19.9663V19.945V19.9238V19.9025V19.8813V19.86V19.8388V19.8175V19.7962V19.775V19.7538V19.7325V19.7113V19.69V19.6688V19.6476V19.6264V19.6052V19.584V19.5628V19.5416V19.5205V19.4993V19.4781V19.457V19.4359V19.4148V19.3937V19.3726V19.3515V19.3305V19.3094V19.2884V19.2674V19.2464V19.2254V19.2044V19.1835V19.1626V19.1417V19.1208V19.0999V19.0791V19.0583V19.0375V19.0167V18.996V18.9753V18.9546V18.9339V18.9132V18.8926V18.872V18.8514V18.8309V18.8104V18.7899V18.7695V18.749V18.7286V18.7083V18.688V18.6677V18.6474V18.6272V18.607V18.5868V18.5667V18.5466V18.5265V18.5065V18.4866V18.4666V18.4467V18.4268V18.407V18.3872V18.3675V18.3478V18.3281V18.3085V18.2889V18.2694V18.2499V18.2305V18.2111V18.1917V18.1724V18.1532V18.134V18.1148V18.0957V18.0766V18.0576V18.0386V18.0197V18.0009V17.9821V17.9633V17.9446V17.9259V17.9073V17.8888V17.8703V17.8519V17.8335V17.8152V17.7969V17.7787V17.7606V17.7425V17.7245V17.7065V17.6886V17.6707V17.653V17.6352V17.6176V17.6V17.5825V17.565V17.5476V17.5303V17.513V17.4958V17.4786V17.4616V17.4446V17.4277V17.4108V17.394V17.3773V17.3606V17.3441V17.3276V17.3111V17.2948V17.2785V17.2623V17.2462V17.2301V17.2141V17.1982V17.1824V17.1667V17.151V17.1354V17.1199V17.1045V17.0891V17.0738V17.0587V17.0436V17.0285V17.0136V16.9987V16.984V16.9693V16.9547V16.9402V16.9258V16.9114V16.8972V16.883V16.8689V16.855V16.8411V16.8273V16.8136V16.7999V16.7864V16.773V16.7596V16.7464V16.7333V16.7202V16.7072V16.6944V16.6816V16.6689V16.6564V16.6439V16.6315V16.6193V16.6071V16.595V16.583V16.5712V16.5594V16.5477V16.5362V16.5247V16.5134V16.5021V16.491V16.48V16.469V16.4582V16.4475V16.4369V16.4264V16.416V16.4057V16.3956V16.3855V16.3756V16.3658V16.356V16.3464V16.337V16.3276V16.3183V16.3092V16.3002V16.2912V16.2825V16.2738V16.2652V16.2568V16.2485V16.2403V16.2322V16.2242V16.2164V16.2087V16.2011V16.1937V16.1863V16.1791V16.172V16.1651V16.1582V16.1515V16.1449V16.1385V16.1321V16.1259V16.1199V16.1139C9.5 15.9373 9.59814 15.6775 9.83288 15.4422C10.0678 15.2069 10.326 15.1095 10.5 15.1095H10.5059H10.5118H10.5177H10.5236H10.5296H10.5356H10.5416H10.5476H10.5536H10.5597H10.5658H10.5719H10.5781H10.5842H10.5904H10.5966H10.6028H10.6091H10.6154H10.6216H10.628H10.6343H10.6406H10.647H10.6534H10.6598H10.6662H10.6727H10.6792H10.6857H10.6922H10.6987H10.7053H10.7119H10.7185H10.7251H10.7317H10.7384H10.745H10.7517H10.7584H10.7652H10.7719H10.7787H10.7855H10.7923H10.7991H10.806H10.8128H10.8197H10.8266H10.8335H10.8405H10.8474H10.8544H10.8614H10.8684H10.8754H10.8825H10.8895H10.8966H10.9037H10.9108H10.918H10.9251H10.9323H10.9395H10.9467H10.9539H10.9611H10.9684H10.9756H10.9829H10.9902H10.9975H11.0049H11.0122H11.0196H11.027H11.0344H11.0418H11.0492H11.0566H11.0641H11.0716H11.0791H11.0866H11.0941H11.1016H11.1092H11.1167H11.1243H11.1319H11.1395H11.1471H11.1548H11.1624H11.1701H11.1778H11.1855H11.1932H11.2009H11.2086H11.2164H11.2242H11.2319H11.2397H11.2475H11.2553H11.2632H11.271H11.2789H11.2867H11.2946H11.3025H11.3104H11.3183H11.3263H11.3342H11.3422H11.3501H11.3581H11.3661H11.3741H11.3821H11.3902H11.3982H11.4062H11.4143H11.4224H11.4305H11.4386H11.4467H11.4548H11.4629H11.4711H11.4792H11.4874H11.4955H11.5037H11.5119H11.5201H11.5283H11.5366H11.5448H11.553H11.5613H11.5695H11.5778H11.5861H11.5944H11.6027H11.611H11.6193H11.6277H11.636H11.6443H11.6527H11.6611H11.6694H11.6778H11.6862H11.6946H11.703H11.7114H11.7198H11.7283H11.7367H11.7452H11.7536H11.7621H11.7705H11.779H11.7875H11.796H11.8045H11.813H11.8215H11.83H11.8386H11.8471H11.8556H11.8642H11.8727H11.8813H11.8899H11.8984H11.907H11.9156H11.9242H11.9328H11.9414H11.95H11.9586H11.9672H11.9759H11.9845H11.9931H12.0018H12.0104H12.0191H12.0277H12.0364H12.0451H12.0537H12.0624H12.0711H12.0798H12.0885H12.0971H12.1058H12.1145H12.1232H12.132H12.1407H12.1494H12.1581H12.1668H12.1756H12.1843H12.193H12.2018H12.2105H12.2192H12.228H12.2367H12.2455H12.2542H12.263H12.2717H12.2805H12.2893H12.298H12.3068H12.3156H12.3243H12.3331H12.3419H12.3507H12.3594H12.3682H12.377H12.3858H12.3946H12.4033H12.4121H12.4209H12.4297H12.4385H12.4473H12.4561H12.4648H12.4736H12.4824H12.4912H12.5H12.5088H12.5176H12.5264H12.5351H12.5439H12.5527H12.5615H12.5703H12.5791H12.5879H12.5967H12.6054H12.6142H12.623H12.6318H12.6406H12.6493H12.6581H12.6669H12.6757H12.6844H12.6932H12.702H12.7107H12.7195H12.7282H12.737H12.7458H12.7545H12.7633H12.772H12.7808H12.7895H12.7982H12.807H12.8157H12.8244H12.8332H12.8419H12.8506H12.8593H12.868H12.8767H12.8854H12.8941H12.9028H12.9115H12.9202H12.9289H12.9376H12.9463H12.9549H12.9636H12.9723H12.9809H12.9896H12.9982H13.0069H13.0155H13.0241H13.0327H13.0414H13.05H13.0586H13.0672H13.0758H13.0844H13.093H13.1015H13.1101H13.1187H13.1272H13.1358H13.1443H13.1529H13.1614H13.1699H13.1785H13.187H13.1955H13.204H13.2125H13.221H13.2294H13.2379H13.2464H13.2548H13.2633H13.2717H13.2801H13.2886H13.297H13.3054H13.3138H13.3222H13.3306H13.3389H13.3473H13.3557H13.364H13.3723H13.3807H13.389H13.3973H13.4056H13.4139H13.4222H13.4304H13.4387H13.447H13.4552H13.4634H13.4717H13.4799H13.4881H13.4963H13.5044H13.5126H13.5208H13.5289H13.5371H13.5452H13.5533H13.5614H13.5695H13.5776H13.5857H13.5937H13.6018H13.6098H13.6179H13.6259H13.6339H13.6419H13.6499H13.6578H13.6658H13.6737H13.6817H13.6896H13.6975H13.7054H13.7133H13.7211H13.729H13.7368H13.7447H13.7525H13.7603H13.7681H13.7758H13.7836H13.7914H13.7991H13.8068H13.8145H13.8222H13.8299H13.8376H13.8452H13.8528H13.8605H13.8681H13.8757H13.8833H13.8908H13.8984H13.9059H13.9134H13.9209H13.9284H13.9359H13.9433H13.9508H13.9582H13.9656H13.973H13.9804H13.9878H13.9951H14.0025H14.0098H14.0171H14.0244H14.0316H14.0389H14.0461H14.0533H14.0605H14.0677H14.0749H14.082H14.0892H14.0963H14.1034H14.1105H14.1175H14.1246H14.1316H14.1386H14.1456H14.1526H14.1595H14.1665H14.1734H14.1803H14.1872H14.194H14.2009H14.2077H14.2145H14.2213H14.2281H14.2348H14.2415H14.2483H14.255H14.2616H14.2683H14.2749H14.2815H14.2881H14.2947H14.3013H14.3078H14.3143H14.3208H14.3273H14.3337H14.3402H14.3466H14.353H14.3594H14.3657H14.372H14.3783H14.3846H14.3909H14.3972H14.4034H14.4096H14.4158H14.4219H14.4281H14.4342H14.4403H14.4463H14.4524H14.4584H14.4644H14.4704H14.4764H14.4823H14.4882H14.4941H14.5C14.674 15.1095 14.9322 15.2069 15.1671 15.4422C15.4019 15.6775 15.5 15.9373 15.5 16.1139V20.3502V20.3713V20.3925V20.4136V20.4347V20.4558V20.4769V20.498V20.519V20.54V20.5611V20.5821V20.603V20.624V20.6449V20.6659V20.6868V21.0182V21.6561V22.7694V22.9049ZM7.5 22.7201V22.7305C7.16815 22.695 6.83557 22.656 6.50208 22.6135C5.04036 22.427 4.10663 22.0692 3.48443 21.5644C2.88303 21.0765 2.46249 20.361 2.21205 19.2165C1.23198 14.7378 1.47972 10.7505 1.69878 9.21903C1.72156 9.18083 1.76188 9.12096 1.8271 9.03762C1.97501 8.84861 2.20084 8.60214 2.50458 8.30278C3.10899 7.7071 3.94945 6.97258 4.9089 6.17899C6.82335 4.59548 9.14444 2.83178 10.8366 1.57188C11.8568 0.812318 13.2404 0.80911 14.2633 1.5639C15.9695 2.82291 18.3111 4.58864 20.2304 6.17389C21.1926 6.96861 22.03 7.70271 22.6245 8.29655C22.9236 8.59528 23.1406 8.8382 23.278 9.02132C23.3258 9.08503 23.3572 9.13255 23.3767 9.16498C23.4852 10.7948 23.7496 14.7791 22.8719 19.2371C22.6475 20.3774 22.2303 21.0875 21.6279 21.5714C21.0005 22.0755 20.0539 22.4301 18.5887 22.6131C18.2241 22.6586 17.8613 22.7001 17.5 22.7376V21.6561V21.342V21.322V21.302V21.282V21.2619V21.2418V21.2216V21.2014V21.1812V21.1609V21.1406V21.1203V21.0999V21.0795V21.0591V21.0386V21.0182V20.3502V16.1139C17.5 15.2884 17.0981 14.546 16.5829 14.0296C16.0678 13.5133 15.326 13.1095 14.5 13.1095H14.4941H14.4882H14.4823H14.4764H14.4704H14.4644H14.4584H14.4524H14.4463H14.4403H14.4342H14.4281H14.4219H14.4158H14.4096H14.4034H14.3972H14.3909H14.3846H14.3783H14.372H14.3657H14.3594H14.353H14.3466H14.3402H14.3337H14.3273H14.3208H14.3143H14.3078H14.3013H14.2947H14.2881H14.2815H14.2749H14.2683H14.2616H14.255H14.2483H14.2415H14.2348H14.2281H14.2213H14.2145H14.2077H14.2009H14.194H14.1872H14.1803H14.1734H14.1665H14.1595H14.1526H14.1456H14.1386H14.1316H14.1246H14.1175H14.1105H14.1034H14.0963H14.0892H14.082H14.0749H14.0677H14.0605H14.0533H14.0461H14.0389H14.0316H14.0244H14.0171H14.0098H14.0025H13.9951H13.9878H13.9804H13.973H13.9656H13.9582H13.9508H13.9433H13.9359H13.9284H13.9209H13.9134H13.9059H13.8984H13.8908H13.8833H13.8757H13.8681H13.8605H13.8528H13.8452H13.8376H13.8299H13.8222H13.8145H13.8068H13.7991H13.7914H13.7836H13.7758H13.7681H13.7603H13.7525H13.7447H13.7368H13.729H13.7211H13.7133H13.7054H13.6975H13.6896H13.6817H13.6737H13.6658H13.6578H13.6499H13.6419H13.6339H13.6259H13.6179H13.6098H13.6018H13.5937H13.5857H13.5776H13.5695H13.5614H13.5533H13.5452H13.5371H13.5289H13.5208H13.5126H13.5044H13.4963H13.4881H13.4799H13.4717H13.4634H13.4552H13.447H13.4387H13.4304H13.4222H13.4139H13.4056H13.3973H13.389H13.3807H13.3723H13.364H13.3557H13.3473H13.3389H13.3306H13.3222H13.3138H13.3054H13.297H13.2886H13.2801H13.2717H13.2633H13.2548H13.2464H13.2379H13.2294H13.221H13.2125H13.204H13.1955H13.187H13.1785H13.1699H13.1614H13.1529H13.1443H13.1358H13.1272H13.1187H13.1101H13.1015H13.093H13.0844H13.0758H13.0672H13.0586H13.05H13.0414H13.0327H13.0241H13.0155H13.0069H12.9982H12.9896H12.9809H12.9723H12.9636H12.9549H12.9463H12.9376H12.9289H12.9202H12.9115H12.9028H12.8941H12.8854H12.8767H12.868H12.8593H12.8506H12.8419H12.8332H12.8244H12.8157H12.807H12.7982H12.7895H12.7808H12.772H12.7633H12.7545H12.7458H12.737H12.7282H12.7195H12.7107H12.702H12.6932H12.6844H12.6757H12.6669H12.6581H12.6493H12.6406H12.6318H12.623H12.6142H12.6054H12.5967H12.5879H12.5791H12.5703H12.5615H12.5527H12.5439H12.5351H12.5264H12.5176H12.5088H12.5H12.4912H12.4824H12.4736H12.4648H12.4561H12.4473H12.4385H12.4297H12.4209H12.4121H12.4033H12.3946H12.3858H12.377H12.3682H12.3594H12.3507H12.3419H12.3331H12.3243H12.3156H12.3068H12.298H12.2893H12.2805H12.2717H12.263H12.2542H12.2455H12.2367H12.228H12.2192H12.2105H12.2018H12.193H12.1843H12.1756H12.1668H12.1581H12.1494H12.1407H12.132H12.1232H12.1145H12.1058H12.0971H12.0885H12.0798H12.0711H12.0624H12.0537H12.0451H12.0364H12.0277H12.0191H12.0104H12.0018H11.9931H11.9845H11.9759H11.9672H11.9586H11.95H11.9414H11.9328H11.9242H11.9156H11.907H11.8984H11.8899H11.8813H11.8727H11.8642H11.8556H11.8471H11.8386H11.83H11.8215H11.813H11.8045H11.796H11.7875H11.779H11.7705H11.7621H11.7536H11.7452H11.7367H11.7283H11.7198H11.7114H11.703H11.6946H11.6862H11.6778H11.6694H11.6611H11.6527H11.6443H11.636H11.6277H11.6193H11.611H11.6027H11.5944H11.5861H11.5778H11.5695H11.5613H11.553H11.5448H11.5366H11.5283H11.5201H11.5119H11.5037H11.4955H11.4874H11.4792H11.4711H11.4629H11.4548H11.4467H11.4386H11.4305H11.4224H11.4143H11.4062H11.3982H11.3902H11.3821H11.3741H11.3661H11.3581H11.3501H11.3422H11.3342H11.3263H11.3183H11.3104H11.3025H11.2946H11.2867H11.2789H11.271H11.2632H11.2553H11.2475H11.2397H11.2319H11.2242H11.2164H11.2086H11.2009H11.1932H11.1855H11.1778H11.1701H11.1624H11.1548H11.1471H11.1395H11.1319H11.1243H11.1167H11.1092H11.1016H11.0941H11.0866H11.0791H11.0716H11.0641H11.0566H11.0492H11.0418H11.0344H11.027H11.0196H11.0122H11.0049H10.9975H10.9902H10.9829H10.9756H10.9684H10.9611H10.9539H10.9467H10.9395H10.9323H10.9251H10.918H10.9108H10.9037H10.8966H10.8895H10.8825H10.8754H10.8684H10.8614H10.8544H10.8474H10.8405H10.8335H10.8266H10.8197H10.8128H10.806H10.7991H10.7923H10.7855H10.7787H10.7719H10.7652H10.7584H10.7517H10.745H10.7384H10.7317H10.7251H10.7185H10.7119H10.7053H10.6987H10.6922H10.6857H10.6792H10.6727H10.6662H10.6598H10.6534H10.647H10.6406H10.6343H10.628H10.6216H10.6154H10.6091H10.6028H10.5966H10.5904H10.5842H10.5781H10.5719H10.5658H10.5597H10.5536H10.5476H10.5416H10.5356H10.5296H10.5236H10.5177H10.5118H10.5059H10.5C9.67399 13.1095 8.93224 13.5133 8.41711 14.0296C7.90185 14.546 7.5 15.2884 7.5 16.1139V16.1199V16.1259V16.1321V16.1385V16.1449V16.1515V16.1582V16.1651V16.172V16.1791V16.1863V16.1937V16.2011V16.2087V16.2164V16.2242V16.2322V16.2403V16.2485V16.2568V16.2652V16.2738V16.2825V16.2912V16.3002V16.3092V16.3183V16.3276V16.337V16.3464V16.356V16.3658V16.3756V16.3855V16.3956V16.4057V16.416V16.4264V16.4369V16.4475V16.4582V16.469V16.48V16.491V16.5021V16.5134V16.5247V16.5362V16.5477V16.5594V16.5712V16.583V16.595V16.6071V16.6193V16.6315V16.6439V16.6564V16.6689V16.6816V16.6944V16.7072V16.7202V16.7333V16.7464V16.7596V16.773V16.7864V16.7999V16.8136V16.8273V16.8411V16.855V16.8689V16.883V16.8972V16.9114V16.9258V16.9402V16.9547V16.9693V16.984V16.9987V17.0136V17.0285V17.0436V17.0587V17.0738V17.0891V17.1045V17.1199V17.1354V17.151V17.1667V17.1824V17.1982V17.2141V17.2301V17.2462V17.2623V17.2785V17.2948V17.3111V17.3276V17.3441V17.3606V17.3773V17.394V17.4108V17.4277V17.4446V17.4616V17.4786V17.4958V17.513V17.5303V17.5476V17.565V17.5825V17.6V17.6176V17.6352V17.653V17.6707V17.6886V17.7065V17.7245V17.7425V17.7606V17.7787V17.7969V17.8152V17.8335V17.8519V17.8703V17.8888V17.9073V17.9259V17.9446V17.9633V17.9821V18.0009V18.0197V18.0386V18.0576V18.0766V18.0957V18.1148V18.134V18.1532V18.1724V18.1917V18.2111V18.2305V18.2499V18.2694V18.2889V18.3085V18.3281V18.3478V18.3675V18.3872V18.407V18.4268V18.4467V18.4666V18.4866V18.5065V18.5265V18.5466V18.5667V18.5868V18.607V18.6272V18.6474V18.6677V18.688V18.7083V18.7286V18.749V18.7695V18.7899V18.8104V18.8309V18.8514V18.872V18.8926V18.9132V18.9339V18.9546V18.9753V18.996V19.0167V19.0375V19.0583V19.0791V19.0999V19.1208V19.1417V19.1626V19.1835V19.2044V19.2254V19.2464V19.2674V19.2884V19.3094V19.3305V19.3515V19.3726V19.3937V19.4148V19.4359V19.457V19.4781V19.4993V19.5205V19.5416V19.5628V19.584V19.6052V19.6264V19.6476V19.6688V19.69V19.7113V19.7325V19.7538V19.775V19.7962V19.8175V19.8388V19.86V19.8813V19.9025V19.9238V19.945V19.9663V19.9876V20.0088V20.0301V20.0513V20.0725V20.0938V20.115V20.1362V20.1575V20.1787V20.1999V20.2211V20.2423V20.2635V20.2847V20.3058V20.327V20.3481V20.3693V20.3904V20.4115V20.4326V20.4537V20.4747V20.4958V20.5168V20.5378V20.5589V20.5798V20.6008V20.6218V20.6427V20.6636V20.6845V20.7054V20.7262V20.7471V20.7679V20.7887V20.8094V20.8302V20.8509V20.8716V20.8923V20.9129V20.9335V20.9541V20.9747V20.9952V21.0157V21.0362V21.0566V21.077V21.0974V21.1177V21.1381V21.1584V21.1786V21.1988V21.219V21.2392V21.2593V21.2794V21.2994V21.3194V21.3394V21.3593V21.3792V21.399V21.4189V21.4386V21.4584V21.4781V21.4977V21.5173V21.5369V21.5564V21.5759V21.5953V21.6147V21.634V21.6533V21.6725V21.6917V21.7109V21.73V21.749V21.768V21.787V21.8059V21.8247V21.8435V21.8623V21.881V21.8996V21.9182V21.9367V21.9552V21.9736V21.992V22.0103V22.0285V22.0467V22.0648V22.0829V22.1009V22.1189V22.1367V22.1546V22.1723V22.19V22.2077V22.2252V22.2428V22.2602V22.2776V22.2949V22.3121V22.3293V22.3464V22.3635V22.3805V22.3974V22.4142V22.431V22.4477V22.4643V22.4809V22.4973V22.5137V22.5301V22.5463V22.5625V22.5786V22.5947V22.6106V22.6265V22.6423V22.658V22.6737V22.6892V22.7047V22.7201ZM1.68016 9.25341C1.68007 9.25343 1.68083 9.25162 1.6827 9.2479C1.68118 9.25152 1.68025 9.25338 1.68016 9.25341ZM23.4016 9.2113C23.4014 9.21125 23.4003 9.20897 23.3986 9.20458C23.4008 9.20915 23.4017 9.21135 23.4016 9.2113Z" stroke="#828282" stroke-width="2" stroke-linecap="round" stroke-linejoin="round"/>
</svg>
