<svg width="10" height="10" viewBox="0 0 10 10" fill="none" xmlns="http://www.w3.org/2000/svg">
<path d="M4.16667 4.22486C4.16667 4.69152 4.53976 5.06983 5 5.06983C5.46024 5.06983 5.83333 4.69152 5.83333 4.22486C5.83333 3.75819 5.46024 3.37989 5 3.37989C4.53976 3.37989 4.16667 3.75819 4.16667 4.22486Z" fill="#4F4F4F"/>
<path fill-rule="evenodd" clip-rule="evenodd" d="M4.39199 9.85071C3.18619 9.22733 0.565598 7.60434 0.0729457 5.06983C-0.337662 2.9574 0.942571 0 5 0C9.05743 0 10.3376 2.9574 9.92706 5.06983C9.43443 7.60435 6.81383 9.22733 5.60802 9.85071C5.22299 10.0498 4.77702 10.0498 4.39199 9.85071ZM3.33333 4.22486C3.33333 5.15819 4.07953 5.9148 5 5.9148C5.92048 5.9148 6.66667 5.15819 6.66667 4.22486C6.66667 3.29153 5.92048 2.53491 5 2.53491C4.07953 2.53491 3.33333 3.29153 3.33333 4.22486Z" fill="#4F4F4F"/>
</svg>
