<svg width="48" height="48" viewBox="0 0 48 48" fill="none" xmlns="http://www.w3.org/2000/svg">
<path d="M22.5 26.25C22.5 27.0784 23.1716 27.75 24 27.75C24.8284 27.75 25.5 27.0784 25.5 26.25C25.5 25.4216 24.8284 24.75 24 24.75C23.1716 24.75 22.5 25.4216 22.5 26.25Z" fill="#7879F1"/>
<path fill-rule="evenodd" clip-rule="evenodd" d="M27.592 16.3144C28.5363 17.1538 29.1622 18.3707 29.2415 19.9142C32.2266 20.6192 33 22.3715 33 26.25C33 31.8086 31.4115 33 24 33C16.5885 33 15 31.8086 15 26.25C15 22.3715 15.7734 20.6192 18.7585 19.9142C18.8378 18.3707 19.4637 17.1538 20.408 16.3144C21.4059 15.4274 22.7152 15 24 15C25.2848 15 26.5941 15.4274 27.592 16.3144ZM24 19.5C22.5491 19.5 21.3214 19.5457 20.2851 19.6608C20.407 18.6702 20.836 17.9409 21.4045 17.4356C22.0941 16.8226 23.0348 16.5 24 16.5C24.9652 16.5 25.9059 16.8226 26.5955 17.4356C27.164 17.9409 27.593 18.6702 27.7149 19.6608C26.6786 19.5457 25.4509 19.5 24 19.5ZM21 26.25C21 27.9069 22.3431 29.25 24 29.25C25.6569 29.25 27 27.9069 27 26.25C27 24.5931 25.6569 23.25 24 23.25C22.3431 23.25 21 24.5931 21 26.25Z" fill="#7879F1"/>
</svg>
