<svg width="11" height="10" viewBox="0 0 11 10" fill="none" xmlns="http://www.w3.org/2000/svg">
<path d="M5.45455 10C0.962727 10 0 9.1175 0 5C0 3.86837 0.0727192 2.98108 0.271434 2.28932C0.780241 2.79943 1.4223 3.41283 2.11967 3.95921C3.10874 4.73412 4.3066 5.45455 5.45455 5.45455C6.60249 5.45455 7.80036 4.73412 8.78942 3.95921C9.48679 3.41283 10.1288 2.79943 10.6377 2.28932C10.8364 2.98108 10.9091 3.86837 10.9091 5C10.9091 9.1175 9.94636 10 5.45455 10Z" fill="#4F4F4F"/>
<path d="M10.2415 1.39687C9.7089 1.93969 9.00245 2.63742 8.22876 3.24359C7.25419 4.00714 6.27024 4.54545 5.45455 4.54545C4.63885 4.54545 3.6549 4.00714 2.68033 3.24359C1.90664 2.63742 1.20019 1.93969 0.667573 1.39687C1.3895 0.305727 2.81073 0 5.45455 0C8.09836 0 9.51959 0.305727 10.2415 1.39687Z" fill="#4F4F4F"/>
</svg>
