<svg width="48" height="49" viewBox="0 0 48 49" fill="none" xmlns="http://www.w3.org/2000/svg">
<path d="M32.1617 16.3632C32.7254 16.936 32.894 17.7331 32.9579 18.3121C33.0292 18.9584 33.0047 19.6998 32.9238 20.4632C32.7613 21.9983 32.3481 23.8282 31.7949 25.5896C31.2424 27.3486 30.5274 29.1121 29.7301 30.497C29.3328 31.1871 28.888 31.8308 28.3979 32.3385C27.9297 32.8237 27.2838 33.327 26.47 33.4642L26.4655 33.4649C26.3123 33.4903 26.163 33.4959 26.1104 33.4979L26.1004 33.4983C25.5689 33.5199 25.1101 33.3325 24.7968 33.1642C24.4619 32.9843 24.1476 32.7468 23.8673 32.4978C23.3055 31.9987 22.7579 31.3436 22.3124 30.6604C22.0682 30.286 21.8369 29.876 21.6479 29.4516C21.3674 28.8221 21.5386 28.1067 21.9628 27.563L24.5363 24.5306C24.6681 24.3754 24.6585 24.1454 24.5143 24.0016C24.3701 23.8578 24.1394 23.8482 23.9837 23.9796L20.9422 26.5455C20.3625 26.995 19.5958 27.1692 18.9328 26.8543C18.5088 26.6529 18.1001 26.4102 17.7267 26.1534C17.0216 25.6685 16.3461 25.0669 15.8506 24.4398C15.6035 24.127 15.3699 23.7686 15.2109 23.3809C15.0572 23.0063 14.9245 22.4843 15.0498 21.9133L15.05 21.9124C15.2213 21.1327 15.7346 20.5153 16.221 20.0656C16.7333 19.5921 17.3775 19.1574 18.0691 18.7656C19.4568 17.9796 21.2141 17.2667 22.9664 16.7129C24.7196 16.1588 26.5392 15.7414 28.0652 15.5771C28.8238 15.4953 29.5632 15.4701 30.2089 15.5432C30.7888 15.6089 31.591 15.7832 32.1617 16.3632Z" fill="white"/>
</svg>
