<svg width="156" height="111" viewBox="0 0 156 111" fill="none" xmlns="http://www.w3.org/2000/svg">
<path d="M79.3019 63.4219C81.4804 62.0361 83.6654 60.6568 85.8439 59.2711C86.83 58.6459 87.8291 58.0272 88.7894 57.3568C91.0711 55.7649 93.2109 53.9537 95.1123 51.917C98.8763 47.8758 101.738 43.0869 103.549 37.8727C105.025 33.6123 105.657 29.1199 105.657 24.6211V16.0424C105.657 14.8887 104.851 13.8832 103.762 13.5545C102.976 13.316 102.196 13.0711 101.442 12.7553C101.648 12.8391 101.854 12.9293 102.06 13.0131C100.713 12.4395 99.45 11.7047 98.2898 10.8152L98.8119 11.2213C97.6646 10.3318 96.6334 9.30704 95.7439 8.15977L96.15 8.68184C95.2605 7.52169 94.5193 6.25196 93.9457 4.90489C94.0295 5.11114 94.1197 5.31739 94.2035 5.52364C94.0101 5.05958 93.8297 4.58262 93.675 4.10567C93.3269 3.01641 92.3537 2.21075 91.1871 2.21075H68.0549C66.9914 2.21075 65.9215 2.17852 64.858 2.21075H64.8129C63.6398 2.21075 62.673 3.01641 62.325 4.10567C62.1703 4.58907 61.9963 5.05958 61.7965 5.52364C61.8802 5.31739 61.9705 5.11114 62.0543 4.90489C61.4806 6.25196 60.7394 7.51524 59.85 8.68184L60.256 8.15977C59.3666 9.30704 58.3353 10.3318 57.1881 11.2213L57.7101 10.8152C56.55 11.7047 55.2802 12.4395 53.9396 13.0131C54.1459 12.9293 54.3521 12.8391 54.5584 12.7553C53.7978 13.0711 53.0244 13.316 52.2381 13.5545C51.1488 13.8832 50.3431 14.8887 50.3431 16.0424V23.8154C50.3431 25.1818 50.3431 26.5482 50.4398 27.9147C50.6461 30.6926 51.1166 33.4641 51.8965 36.1389C53.4433 41.4498 56.1246 46.3418 59.6824 50.5635C62.4474 53.8442 65.7797 56.4996 69.389 58.7877L76.524 63.3123C76.582 63.351 76.6465 63.3897 76.7045 63.4283C77.8453 64.1502 79.5984 63.7055 80.23 62.5002C80.9004 61.224 80.5201 59.7481 79.3019 58.9746C78.1418 58.2399 76.9816 57.5051 75.8279 56.7703C74.3455 55.8293 72.8695 54.8947 71.3871 53.9537C70.3494 53.2963 69.3375 52.5938 68.3578 51.8461L68.8799 52.2522C66.4435 50.3637 64.2521 48.1723 62.3636 45.7359L62.7697 46.258C60.849 43.7637 59.2506 41.0309 58.0195 38.1305C58.1033 38.3367 58.1935 38.543 58.2773 38.7492C57.0205 35.765 56.1633 32.6326 55.7314 29.4229C55.7636 29.6484 55.7959 29.8805 55.8217 30.1061C55.5445 28.0178 55.4994 25.9295 55.4994 23.8348V16.0682C54.8677 16.8996 54.2361 17.7246 53.6045 18.5561C55.8281 17.8857 57.9808 16.9963 59.8693 15.6363C62.1058 14.025 64.0136 12.0399 65.4316 9.66798C66.2115 8.36602 66.8367 6.94805 67.3008 5.5043C66.4693 6.13594 65.6443 6.76759 64.8129 7.39923H87.9451C89.0086 7.39923 90.0785 7.42501 91.142 7.39923H91.1871C90.3556 6.76759 89.5306 6.13594 88.6992 5.5043C90.317 10.551 93.9908 14.9402 98.8119 17.209C99.972 17.7568 101.164 18.1822 102.395 18.5561C101.764 17.7246 101.132 16.8996 100.501 16.0682V25.2076C100.501 26.8447 100.391 28.4818 100.178 30.1061C100.211 29.8805 100.243 29.6484 100.269 29.4229C99.8302 32.6262 98.973 35.765 97.7226 38.7492C97.8064 38.543 97.8966 38.3367 97.9804 38.1305C96.7494 41.0309 95.1509 43.7637 93.2302 46.258L93.6363 45.7359C91.7478 48.1723 89.5564 50.3637 87.1201 52.2522L87.6422 51.8461C86.1984 52.9611 84.6644 53.9215 83.1304 54.9012C81.4289 55.984 79.7273 57.0604 78.0258 58.1432C77.5875 58.4203 77.1427 58.7039 76.7045 58.9811C76.1437 59.3356 75.699 59.8705 75.5185 60.5215C75.351 61.1402 75.4283 61.9588 75.7763 62.5066C76.5111 63.641 78.0838 64.1953 79.3019 63.4219Z" fill="#5D5FEF"/>
<path d="M18.817 100V95.815H5.89V91.63H18.352V87.476H5.89V83.415H18.817V79.23H1.24V100H18.817ZM30.3417 100.31C36.9447 100.31 39.5797 97.272 39.5797 93.893C39.5797 91.041 37.9057 88.778 33.2557 88.034L27.4277 87.104C25.6917 86.794 25.0097 86.36 25.0097 85.151C25.0097 83.818 26.0327 83.167 29.3807 83.167C33.5037 83.167 34.5267 84.004 34.5267 85.988V86.422H39.2077V86.236C39.2077 81.865 36.2317 78.92 29.8457 78.92C22.8707 78.92 20.3287 82.206 20.3287 85.337C20.3287 88.716 22.5297 90.576 26.2497 91.165L32.0777 92.002C34.2167 92.374 34.9297 92.839 34.9297 94.11C34.9297 95.505 34.0617 96.063 30.3417 96.063C26.1257 96.063 25.1647 95.288 25.1647 93.366V92.808H20.5147V92.994C20.5147 97.83 24.0487 100.31 30.3417 100.31ZM51.2694 100.31C55.7644 100.31 57.9344 98.264 58.6474 95.536H58.8954V100H63.2044V89.026H51.5174V92.467H58.5544C58.4304 95.102 56.9734 95.846 52.1994 95.846C47.6424 95.846 45.9374 94.234 45.9374 89.615C45.9374 84.996 47.7044 83.384 52.4164 83.384C56.4154 83.384 57.9964 84.531 57.9964 86.949V87.197H63.1734V86.949C63.1734 81.958 59.0504 78.92 52.5404 78.92C45.4104 78.92 41.0084 83.136 41.0084 89.615C41.0084 96.094 44.9144 100.31 51.2694 100.31ZM75.5242 100.31C82.3132 100.31 85.7232 96.9 85.7232 91.32V79.23H81.0732V90.979C81.0732 94.513 79.7712 95.784 75.5242 95.784C71.3082 95.784 69.9752 94.513 69.9752 90.979V79.23H65.3252V91.32C65.3252 96.9 68.7662 100.31 75.5242 100.31ZM91.8772 100L93.8612 95.412H104.246L106.199 100H111.531L102.386 79.23H95.7522L86.6692 100H91.8772ZM97.6122 86.701L98.8832 83.477H99.2242L100.495 86.701L102.448 91.227H95.6592L97.6122 86.701ZM117.266 100V92.467H120.335C122.753 92.467 123.528 92.994 124.365 94.606L127.217 100H132.611L129.604 94.42C128.829 92.963 128.116 91.971 126.256 91.475V91.227C130.162 90.855 132.115 88.84 132.115 85.461C132.115 81.493 129.201 79.23 124.086 79.23H112.616V100H117.266ZM117.266 83.415H124.055C126.256 83.415 127.248 84.128 127.248 86.174C127.248 88.344 126.256 88.964 124.055 88.964H117.266V83.415ZM144.341 100C151.006 100 155.222 96.125 155.222 89.615C155.222 83.105 151.006 79.23 144.341 79.23H134.328V100H144.341ZM144.341 83.415C148.557 83.415 150.262 84.624 150.262 89.615C150.262 94.606 148.557 95.815 144.341 95.815H138.978V83.415H144.341Z" fill="#5D5FEF"/>
</svg>
