<svg width="66" height="66" viewBox="0 0 66 66" fill="none" xmlns="http://www.w3.org/2000/svg">
<path d="M33 66C51.2254 66 66 51.2254 66 33C66 14.7746 51.2254 0 33 0C14.7746 0 0 14.7746 0 33C0 51.2254 14.7746 66 33 66Z" fill="#7879F1"/>
<path d="M39.944 65.2217C40.5768 65.099 41.2059 64.9577 41.8305 64.7982C42.8895 64.5022 43.933 64.1534 44.9572 63.7532C45.9827 63.3563 46.9877 62.9084 47.9685 62.4112C48.9495 61.912 49.905 61.3641 50.8312 60.7694C51.7564 60.1747 52.6513 59.534 53.5125 58.8499C54.3752 58.1649 55.2031 57.437 55.993 56.6692C56.7816 55.9032 57.5315 55.0983 58.2397 54.2574C58.9486 53.4158 59.6149 52.5393 60.2362 51.6312C60.8574 50.7246 61.4328 49.7875 61.9605 48.8234C62.4882 47.858 62.9673 46.8667 63.396 45.8534C63.8251 44.8399 64.2032 43.8055 64.529 42.7542C64.8079 41.8337 65.0465 40.9015 65.244 39.9602L45.6365 20.3554C43.9806 18.6923 42.0122 17.3729 39.8445 16.4734C37.6768 15.5738 35.3527 15.1118 33.0057 15.1139C30.6567 15.1114 28.3303 15.5731 26.1603 16.4726C23.9903 17.3722 22.0195 18.6917 20.3612 20.3554C18.6988 22.0143 17.3798 23.9847 16.4799 26.154C15.5799 28.3232 15.1167 30.6487 15.1167 32.9972C15.1167 35.3457 15.5799 37.6712 16.4799 39.8404C17.3798 42.0097 18.6988 43.9801 20.3612 45.6389L39.944 65.2189V65.2217Z" fill="#5D5FEF"/>
<path d="M33.0028 15.1166C37.5733 15.1166 42.1438 16.8629 45.6418 20.3581C47.3043 22.0169 48.6232 23.9874 49.5232 26.1566C50.4231 28.3259 50.8863 30.6514 50.8863 32.9999C50.8863 35.3484 50.4231 37.6738 49.5232 39.8431C48.6232 42.0123 47.3043 43.9828 45.6418 45.6416C43.983 47.3041 42.0125 48.6231 39.8433 49.523C37.674 50.4229 35.3486 50.8862 33.0001 50.8862C30.6515 50.8862 28.3261 50.4229 26.1568 49.523C23.9876 48.6231 22.0171 47.3041 20.3583 45.6416C18.6958 43.9828 17.3769 42.0123 16.4769 39.8431C15.577 37.6738 15.1138 35.3484 15.1138 32.9999C15.1138 30.6514 15.577 28.3259 16.4769 26.1566C17.3769 23.9874 18.6958 22.0169 20.3583 20.3581C22.0166 18.6944 23.9874 17.3748 26.1574 16.4753C28.3274 15.5758 30.6538 15.1141 33.0028 15.1166ZM41.1428 27.4971C40.8825 27.522 40.6346 27.6203 40.4278 27.7804L30.3793 35.3154L25.7236 30.6624C24.7143 29.6119 22.7261 31.5974 23.7793 32.6066L29.2793 38.1066C29.5177 38.3321 29.8268 38.4681 30.1541 38.4917C30.4814 38.5153 30.8068 38.4249 31.0751 38.2359L42.0751 29.9859C42.9991 29.3121 42.4298 27.5164 41.2858 27.4999C41.2391 27.4975 41.1923 27.4975 41.1456 27.4999L41.1428 27.4971Z" fill="white"/>
</svg>
