<svg width="27" height="24" viewBox="0 0 27 24" fill="none" xmlns="http://www.w3.org/2000/svg">
<path d="M1.5 19C1.5 19.9693 1.61783 20.618 1.84327 21.0791C2.0502 21.5023 2.38679 21.8473 3.01687 22.1337C3.67962 22.4349 4.64546 22.6599 6.0602 22.8028C7.46536 22.9448 9.24527 23 11.5 23C13.7547 23 15.5346 22.9448 16.9398 22.8028C18.3545 22.6599 19.3204 22.4349 19.9831 22.1337C20.6132 21.8473 20.9498 21.5023 21.1567 21.0791C21.3822 20.618 21.5 19.9693 21.5 19C21.5 18.0307 21.3822 17.382 21.1567 16.9209C20.9498 16.4977 20.6132 16.1527 19.9831 15.8663C19.3204 15.5651 18.3545 15.3401 16.9398 15.1972C15.5346 15.0552 13.7547 15 11.5 15C9.24527 15 7.46536 15.0552 6.0602 15.1972C4.64546 15.3401 3.67962 15.5651 3.01687 15.8663C2.38679 16.1527 2.0502 16.4977 1.84327 16.9209C1.61783 17.382 1.5 18.0307 1.5 19Z" stroke="#828282" stroke-width="2" stroke-linecap="round" stroke-linejoin="round"/>
<circle r="5" transform="matrix(-1 0 0 1 11.5 6)" stroke="#828282" stroke-width="2"/>
<path d="M22.5 7V10M22.5 13V10M22.5 10H25.5H19.5" stroke="#828282" stroke-width="2" stroke-linecap="round" stroke-linejoin="round"/>
</svg>
